<svg xmlns="http://www.w3.org/2000/svg" width="32" height="32" viewBox="0 0 32 32"><defs><style>.a{fill:#1dc070;}.b{fill:#fff;}</style></defs><ellipse class="a" cx="14.761" cy="14.761" rx="14.761" ry="14.761" transform="translate(1.239 1.239)"/><path class="a" d="M16,32A16,16,0,1,1,32,16,16.018,16.018,0,0,1,16,32ZM16,2.479A13.521,13.521,0,1,0,29.521,16,13.536,13.536,0,0,0,16,2.479Z"/><path class="b" d="M137.879,173.6a1.238,1.238,0,0,1-.884-.371l-4.573-4.648a1.239,1.239,0,0,1,1.767-1.738l3.654,3.713,7.559-8.325a1.239,1.239,0,1,1,1.834,1.667l-8.44,9.3a1.24,1.24,0,0,1-.892.406Z" transform="translate(-123.813 -151.711)"/></svg>