<svg xmlns="http://www.w3.org/2000/svg" data-name="Layer 1" viewBox="0 0 104 130" x="0px" y="0px"><path d="M99.58,67.84h0a2.09,2.09,0,0,1-1.06-.25L98.35,70,98,72.32l-.21,5.21a1.54,1.54,0,0,0,0,.47l.26,1a2,2,0,0,1,0,.34,1.42,1.42,0,0,1-.91,1.32,1.64,1.64,0,0,1-.53.09,7.68,7.68,0,0,1,0,1,1.85,1.85,0,0,1-.32,1l-.72,1a1.66,1.66,0,0,1-1.33.67H90.26a1.24,1.24,0,0,1-.91-2.08,9.05,9.05,0,0,0,2.23-3.31c0-.05,1-6,.49-9.24a1.09,1.09,0,0,1,0-.18,7.83,7.83,0,0,0-.94-3.33l-1,2.61a32.09,32.09,0,0,1-3.06,7.17,2.5,2.5,0,0,0-.45,1l.12.43a1.33,1.33,0,0,1,.06.45,1.71,1.71,0,0,1-1.54,1.7,2.26,2.26,0,0,1-.46,1.22l-.79,1a2.26,2.26,0,0,1-1.76.86H78.43a1.66,1.66,0,0,1-1.07-2.94l1.76-1.4a8.49,8.49,0,0,0,.82-.75l0-.06a6.71,6.71,0,0,0,1-1.4,26,26,0,0,0,2.36-5.36v0a34.87,34.87,0,0,0,.34-5l-1.79-.75a9.66,9.66,0,0,1-4-2.77,1.12,1.12,0,0,0-.2-.17,3.19,3.19,0,0,0-.52-.25,5.4,5.4,0,0,1-2.34-2l-.08,0c-.66.57-3.54,2.5-10.63,2.31a37.5,37.5,0,0,1-4.91-.5c-2-.33-8.71-1.42-11.13-1.29a11.45,11.45,0,0,0-.07,3.89,2,2,0,0,0,0,.24A17.08,17.08,0,0,1,48.6,69a1.38,1.38,0,0,1-.31.7s-.92,1.19.21,5.21c.26,1.37.58,2.92.69,3.2l0,.11a1.24,1.24,0,0,1,0,.16s0,0,0,.06a1.4,1.4,0,0,1-.33,1.13,1.47,1.47,0,0,1-.46.36,2.21,2.21,0,0,0,.12.32,2,2,0,0,1,.15.74v.13A2,2,0,0,1,48,82.6l-.92.74a1.92,1.92,0,0,1-.88.4,14.75,14.75,0,0,1-4.95.06,1.38,1.38,0,0,1-1-.72,1.44,1.44,0,0,1,0-1.25,9.91,9.91,0,0,1,2-2.42,1.67,1.67,0,0,0,.36-.52,8.58,8.58,0,0,0,.47-4.13,23.43,23.43,0,0,0-.64-3.43,7.09,7.09,0,0,1-.26-.73l-.75-2.33c-.14.29-.54,1.42-.78,4.89l-.11,5.17a1.47,1.47,0,0,1-1,1.37l-.25,0a2.41,2.41,0,0,1,0,.89,1.38,1.38,0,0,1-.53.72l-1,.64-.1.06a1.29,1.29,0,0,1-.63.17l-.91.06-3,.17A1.5,1.5,0,0,1,32,82a1.55,1.55,0,0,1-.44-1.17l0-.2a1.5,1.5,0,0,1,.4-.74l1.76-1.83a6.77,6.77,0,0,0,1.6-2.68c0-.15.08-.31.12-.49L36.26,72a3.12,3.12,0,0,0-.46-1.66A6.87,6.87,0,0,1,35.2,67l-.05-3.36c0-.1,0,0,0-.14s-.12-.05-.41-.09a5.72,5.72,0,0,1-3.36-1.57l-.18-.18a17.28,17.28,0,0,1-3.66-5A20.41,20.41,0,0,1,25.88,52c-.36-1.52-1.73-5.44-6.7-9l-.32-.26a2,2,0,0,0-.82,0,2.15,2.15,0,0,0-.35.07,27.21,27.21,0,0,1-7.26.74.94.94,0,0,0-.55.14,3.79,3.79,0,0,0-.35.25,3.17,3.17,0,0,1-1.62.64,6.39,6.39,0,0,1-1.64-.07l-.13,0a2,2,0,0,1-1.47-.22C3.52,43.67,2.13,42.53,2,41.07a2.68,2.68,0,0,1,1-2.28,4,4,0,0,0,.47-.45l.26-.28a4.26,4.26,0,0,0,.47-.6,37.68,37.68,0,0,1,2.49-3.38l1.1-1.85,1.26-2.9a8.54,8.54,0,0,1,2.51-3.91l-.62-.5a1.29,1.29,0,0,1-.16-.17c-2.8-3.6-2.37-4.17-2-4.64a1,1,0,0,1,.82-.4c.18,0,.41,0,1,.46a.92.92,0,0,1,.29-.3,1,1,0,0,1,.8-.13c.35.09,1.36.55,3.25,2.84a4.88,4.88,0,0,0,1.63.84c.88-1.33,2.28-3,3.7-2.69l.14,0c.11,0,2.69,1,2.35,4.81a12.1,12.1,0,0,0,1.89.78.85.85,0,0,1,.38.22s3.39,2.82,14.53,1.67h.17c.22,0,5.29.4,8.54.89.13,0,10.64,1.87,30.46-.4,1.2-.41,10.77-3.53,16.32-.25a7.75,7.75,0,0,1,3.75,5.71,59.37,59.37,0,0,1,.28,9.31s-.19,6.83,1.52,11c.23.45,1.79,3.61,1.2,6.45a5.71,5.71,0,0,0,.08,2.14,1,1,0,0,1,0,.24C102,63.78,102.17,67.51,99.58,67.84Z"/></svg>